# xmcd
#
# Track frame offsets: 
#        150
#        19841
#        36440
#        56417
#        76137
#        95384
#        108017
#        132670
#        146510
#        163521
#        179085
#        203070
#        223004
#
# Disc length: 3502 seconds
#
# Revision: 0
# Processed by: cddbd v1.5.2PL0 Copyright (c) Steve Scherf et al.
# Submitted via: ExactAudioCopyFreeDBPlugin 1.0
#
DISCID=b40dac0d
DTITLE=Kramer, Chris - 2014 - Unterwegs zur Sonne
DYEAR=2014
DGENRE=Blues
TTITLE0=Unterwegs zur Sonne
TTITLE1=Gangster Blues
TTITLE2=So weit das Auge reicht
TTITLE3=Isil calad
TTITLE4=Freier Fall
TTITLE5=Könige der Sonne
TTITLE6=Ich gab dir meine Liebe (und du gabst mir den Blues)
TTITLE7=Lass uns tanzen gehen
TTITLE8=Erst hatt' ich kein Glück (und dann kam noch Pech dazu)
TTITLE9=Ich sitz' hier im Stau auf der Autobahn
TTITLE10=Weitergehen
TTITLE11=Wind in unseren Segeln
TTITLE12=Bis wir uns wiedersehen
EXTD=
EXTT0=
EXTT1=
EXTT2=
EXTT3=
EXTT4=
EXTT5=
EXTT6=
EXTT7=
EXTT8=
EXTT9=
EXTT10=
EXTT11=
EXTT12=
PLAYORDER=
